<svg xmlns="http://www.w3.org/2000/svg" xmlns:xlink="http://www.w3.org/1999/xlink" width="564" height="337" viewBox="0 0 564 337">
  <defs>
    <clipPath id="clip-path">
      <rect id="Rectangle_9790" data-name="Rectangle 9790" width="70" height="18" transform="translate(964.613 10608)" fill="#fff"/>
    </clipPath>
    <clipPath id="clip-path-4">
      <path id="Path_1225" data-name="Path 1225" d="M5.414,1.715A19.777,19.777,0,0,1,6.887,6.15,20.086,20.086,0,0,1,7.34,10.6a14.52,14.52,0,0,1-.706,4.317A12.707,12.707,0,0,1,4.679,18.62,11.994,11.994,0,0,0,5.273,14.7a12.434,12.434,0,0,0-.665-3.724,16.65,16.65,0,0,0-1.588-3.34A14.835,14.835,0,0,0,.875,4.863,2.82,2.82,0,1,1,5.35,1.574Z" fill="none"/>
    </clipPath>
    <clipPath id="clip-path-5">
      <rect id="Rectangle_9805" data-name="Rectangle 9805" width="81" height="18" fill="#fff"/>
    </clipPath>
    <clipPath id="clip-path-6">
      <rect id="Rectangle_9806" data-name="Rectangle 9806" width="82" height="16" fill="#fff"/>
    </clipPath>
    <clipPath id="clip-path-7">
      <rect id="Rectangle_9807" data-name="Rectangle 9807" width="81" height="17" fill="#fff"/>
    </clipPath>
    <clipPath id="clip-Base-Mascot">
      <rect width="564" height="337"/>
    </clipPath>
  </defs>
  <g id="Base-Mascot" clip-path="url(#clip-Base-Mascot)">
    <g id="Group_53551" data-name="Group 53551" transform="translate(-618 -10359)">
      <ellipse id="Ellipse_5371" data-name="Ellipse 5371" cx="248.597" cy="17.469" rx="248.597" ry="17.469" transform="translate(627.288 10630.657)" fill="#f7f7f7" opacity="0.393" style="mix-blend-mode: multiply;isolation: isolate"/>
      <g id="Mask_Group_205" data-name="Mask Group 205" transform="translate(-100.613 -246)" clip-path="url(#clip-path)">
        <g id="Group_53038" data-name="Group 53038" transform="translate(967.486 10609.657)">
          <ellipse id="Ellipse_5373" data-name="Ellipse 5373" cx="8.5" cy="9" rx="8.5" ry="9" transform="translate(0.127 7.343)" fill="#fff"/>
          <circle id="Ellipse_5375" data-name="Ellipse 5375" cx="4.5" cy="4.5" r="4.5" transform="translate(47.127 11.343)" fill="#fff"/>
          <circle id="Ellipse_5376" data-name="Ellipse 5376" cx="6" cy="6" r="6" transform="translate(55.127 13.343)" fill="#fff"/>
          <ellipse id="Ellipse_5374" data-name="Ellipse 5374" cx="16.5" cy="16" rx="16.5" ry="16" transform="translate(16.127 0.343)" fill="#fff"/>
        </g>
      </g>
      <g id="Mask_Group_207" data-name="Mask Group 207" transform="translate(-343.613 -167)" clip-path="url(#clip-path)">
        <g id="Group_53040" data-name="Group 53040" transform="translate(967.486 10609.657)">
          <ellipse id="Ellipse_5381" data-name="Ellipse 5381" cx="8.5" cy="9" rx="8.5" ry="9" transform="translate(0.127 7.343)" fill="#fff"/>
          <circle id="Ellipse_5382" data-name="Ellipse 5382" cx="4.5" cy="4.5" r="4.5" transform="translate(47.127 11.343)" fill="#fff"/>
          <circle id="Ellipse_5383" data-name="Ellipse 5383" cx="6" cy="6" r="6" transform="translate(55.127 13.343)" fill="#fff"/>
          <ellipse id="Ellipse_5384" data-name="Ellipse 5384" cx="16.5" cy="16" rx="16.5" ry="16" transform="translate(16.127 0.343)" fill="#fff"/>
        </g>
      </g>
      <path id="Path_58542" data-name="Path 58542" d="M60.286,53.732S48.724,63.952,45.793,51.794c0,0-7,1.894-7-3.66,0,0-8.793,1.514-7.328-5.041,0,0-8.956-1.04-7.654-7.282,0,0-10.91,4.408-8.468-5.641,0,0-5.862-1.745-4.234-6.052,0,0-12.7-4.917-6.676-16.926,0,0-4.885-2.317-4.4-5.692s56.235,0,56.235,0Z" transform="matrix(-0.999, 0.035, -0.035, -0.999, 1024.737, 10637.479)" fill="#dedede" opacity="0.2"/>
      <path id="Path_58554" data-name="Path 58554" d="M60.286,4.019S48.724-6.2,45.793,5.956c0,0-7-1.894-7,3.66,0,0-8.793-1.513-7.328,5.041,0,0-8.956,1.04-7.654,7.282,0,0-10.91-4.408-8.468,5.641,0,0-5.862,1.745-4.234,6.052,0,0-12.7,4.917-6.676,16.926,0,0-4.885,2.317-4.4,5.692s56.235,0,56.235,0Z" transform="matrix(0.809, 0.588, -0.588, 0.809, 715.19, 10568.595)" fill="#dedede" opacity="0.2"/>
      <g id="Mask_Group_206" data-name="Mask Group 206" transform="translate(133.387 -140)" clip-path="url(#clip-path)">
        <g id="Group_53039" data-name="Group 53039" transform="translate(967.486 10609.657)">
          <ellipse id="Ellipse_5377" data-name="Ellipse 5377" cx="8.5" cy="9" rx="8.5" ry="9" transform="translate(0.127 7.343)" fill="#fff"/>
          <circle id="Ellipse_5378" data-name="Ellipse 5378" cx="4.5" cy="4.5" r="4.5" transform="translate(47.127 11.343)" fill="#fff"/>
          <circle id="Ellipse_5379" data-name="Ellipse 5379" cx="6" cy="6" r="6" transform="translate(55.127 13.343)" fill="#fff"/>
          <ellipse id="Ellipse_5380" data-name="Ellipse 5380" cx="16.5" cy="16" rx="16.5" ry="16" transform="translate(16.127 0.343)" fill="#fff"/>
        </g>
      </g>
      <g id="Group_53042" data-name="Group 53042" transform="translate(-816 503.467)">
        <path id="Path_58547" data-name="Path 58547" d="M1745.827,10748.716H1860.29s-51.684-160.863-99.642-231.854C1768.512,10533.451,1796.149,10601.385,1745.827,10748.716Z" transform="translate(-74.091 -614.282)" fill="#e5e5e5"/>
        <path id="Path_58545" data-name="Path 58545" d="M1891.229,10748.562s-32.556-119.255-123.2-232.183c19.475,37.5,75.714,144.554,87.458,232.183Z" transform="translate(-81.2 -614.127)" fill="#ededed"/>
        <path id="Path_58546" data-name="Path 58546" d="M1628.547,10748.568H1514.4s118.068-107.74,172.648-232.166C1689.879,10577.512,1628.547,10748.568,1628.547,10748.568Z" transform="translate(0 -614.133)" fill="#ededed"/>
        <path id="Path_58543" data-name="Path 58543" d="M1738.06,10515.979s-15.437,117.1-63.208,232.453h68.168S1786.179,10637.417,1738.06,10515.979Z" transform="translate(-51.368 -613.998)" fill="#f7f7f7"/>
        <path id="Path_58544" data-name="Path 58544" d="M1745.341,10716.557c2.844-51.259,51.661-103.138,15.973-199.557,11.758,30.868,42.034,128.624,4.382,231.943C1754.254,10748.943,1744.861,10742.429,1745.341,10716.557Z" transform="translate(-73.93 -614.325)" fill="#ededed"/>
      </g>
      <path id="Path_58550" data-name="Path 58550" d="M2090.064,10812.081s-6.336-19.088-7.3-21.835,3.7,2.582,5.959,7.146c2.695-2.635,5.74-6.063,5.593-4.628s-3.588,6.265-1.53,10.642,4.015,8.092,4.015,8.092Z" transform="translate(-1410.976 -194)" fill="#ddd"/>
      <g id="Group_53043" data-name="Group 53043" transform="translate(652.504 10613.709)">
        <path id="Path_58548" data-name="Path 58548" d="M-5.619-.32,76.6-.532V15.246L-8.406,15.2Z" transform="translate(14.637 1.874)" fill="#ddd"/>
        <ellipse id="Ellipse_5385" data-name="Ellipse 5385" cx="7.5" cy="8" rx="7.5" ry="8" transform="translate(83.496 1.291)" fill="#ddd"/>
        <path id="Path_58549" data-name="Path 58549" d="M5.63,0c3.109,0,5.63,3.556,5.63,7.943s-2.521,7.943-5.63,7.943S0,12.329,0,7.943,2.521,0,5.63,0Z" transform="matrix(0.951, 0.309, -0.309, 0.951, 4.909, 0)" fill="#ebebeb"/>
        <path id="Path_58551" data-name="Path 58551" d="M3.365,0C5.223,0,6.729,2.125,6.729,4.747S5.223,9.494,3.365,9.494,0,7.368,0,4.747,1.506,0,3.365,0Z" transform="matrix(0.951, 0.309, -0.309, 0.951, 6.076, 3.739)" fill="#f7f7f7"/>
      </g>
      <g id="Group_53045" data-name="Group 53045" transform="translate(641.449 10629.063)">
        <path id="Path_58548-2" data-name="Path 58548" d="M-5.619-.32l82.22.2V15.246L-8.406,15.2Z" transform="translate(14.637 1.874)" fill="#d5d5d5"/>
        <circle id="Ellipse_5385-2" data-name="Ellipse 5385" cx="7.5" cy="7.5" r="7.5" transform="translate(83.551 1.937)" fill="#eb92cd"/>
        <path id="Path_58549-2" data-name="Path 58549" d="M5.63,0c3.109,0,5.63,3.556,5.63,7.943s-2.521,7.943-5.63,7.943S0,12.329,0,7.943,2.521,0,5.63,0Z" transform="matrix(0.951, 0.309, -0.309, 0.951, 4.909, 0)" fill="#ebebeb"/>
        <path id="Path_58551-2" data-name="Path 58551" d="M3.365,0C5.223,0,6.729,2.125,6.729,4.747S5.223,9.494,3.365,9.494,0,7.368,0,4.747,1.506,0,3.365,0Z" transform="matrix(0.951, 0.309, -0.309, 0.951, 6.076, 3.739)" fill="#f7f7f7"/>
      </g>
      <g id="Group_53044" data-name="Group 53044" transform="translate(654.961 10629.063)">
        <path id="Path_58548-3" data-name="Path 58548" d="M-5.619-.32l82.22.2V15.246L-8.406,15.2Z" transform="translate(14.637 1.874)" fill="#ebebeb"/>
        <path id="Path_58553" data-name="Path 58553" d="M8.022-.182A7.892,7.892,0,0,1,16,7.5a7.9,7.9,0,0,1-7.978,7.688A7.936,7.936,0,0,1,0,7.5,7.931,7.931,0,0,1,8.022-.182Z" transform="translate(83.039 1.937)" fill="#ebebeb"/>
        <path id="Path_58549-3" data-name="Path 58549" d="M5.63,0c3.109,0,5.63,3.556,5.63,7.943s-2.521,7.943-5.63,7.943S0,12.329,0,7.943,2.521,0,5.63,0Z" transform="matrix(0.951, 0.309, -0.309, 0.951, 4.909, 0)" fill="#f7f7f7"/>
        <path id="Path_58551-3" data-name="Path 58551" d="M3.365,0C5.223,0,6.729,2.125,6.729,4.747S5.223,9.494,3.365,9.494,0,7.368,0,4.747,1.506,0,3.365,0Z" transform="matrix(0.951, 0.309, -0.309, 0.951, 6.076, 3.739)" fill="#fff"/>
      </g>
      <g id="Group_53047" data-name="Group 53047" transform="translate(-130.788 -110.794)">
        <ellipse id="Ellipse_5386" data-name="Ellipse 5386" cx="47.11" cy="7.138" rx="47.11" ry="7.138" transform="translate(832.288 10784.114)" fill="#f7f7f7" style="mix-blend-mode: multiply;isolation: isolate"/>
        <g id="Group_653" data-name="Group 653" transform="matrix(-1, -0.017, 0.017, -1, 966.597, 10793.884)">
          <g id="Group_489" data-name="Group 489" transform="translate(0 0)">
            <path id="Path_1216" data-name="Path 1216" d="M4.82,0S9.335,7.8,16.694,9.224c0,0-.644,1.922-1.643,2.4,0,0-7.613.048-15.051-10.727Z" transform="translate(62.735 35.596)" fill="#2d2d70"/>
            <path id="Path_1217" data-name="Path 1217" d="M13.654,14.378c.963-.553,1.462-2.516,1.462-2.516C7.675,10.976,2.6,3.532,2.6,3.532L1.15,0A24.17,24.17,0,0,0,0,2.722,12.567,12.567,0,0,0,.666,6.241C1.859,8.946,4.67,13.854,13.654,14.378Z" transform="translate(56.503 31.71)" fill="#7f6fec"/>
            <g id="Group_371" data-name="Group 371" transform="translate(0)">
              <g id="Group_370" data-name="Group 370">
                <path id="Path_1218" data-name="Path 1218" d="M0,14.03A28.792,28.792,0,0,0,16.836,6.673,21.22,21.22,0,0,0,21.383.8c1.611-2.3,5.533.338.472,7.929A45.212,45.212,0,0,1,10.294,20.542" transform="matrix(0.616, -0.788, 0.788, 0.616, 80.5, 20.605)" fill="#e27e33" stroke="rgba(0,0,0,0)" stroke-width="1"/>
                <path id="Path_1219" data-name="Path 1219" d="M9.43,0S7.82,6.441,0,4.827" transform="translate(57.628 87.791)" fill="#393848"/>
                <g id="Group_369" data-name="Group 369">
                  <ellipse id="Ellipse_4005" data-name="Ellipse 4005" cx="4.768" cy="6.592" rx="4.768" ry="6.592" transform="translate(55.272 90.674) rotate(156.706)" fill="#fff"/>
                  <ellipse id="Ellipse_4006" data-name="Ellipse 4006" cx="1.5" cy="1.801" rx="1.5" ry="1.801" transform="translate(47.424 88.806) rotate(160.913)" fill="#191919"/>
                  <ellipse id="Ellipse_4007" data-name="Ellipse 4007" cx="0.709" cy="0.709" rx="0.709" ry="0.709" transform="translate(45.894 85.88)" fill="#fff"/>
                  <path id="Path_1220" data-name="Path 1220" d="M6.456,0l-.1,17.6S.232,30.483,0,36.139,12.881,23.27,12.881,23.27Z" transform="translate(52.311 27.046)" fill="#f29f21"/>
                  <path id="Path_1221" data-name="Path 1221" d="M10.383,13.843S12.681-1.3,9,.09C7.9.5,5.232,5.392,3.222,12.411L0,21.02" transform="translate(49.519 12.751) rotate(-45)" fill="#e27e33"/>
                  <path id="Path_1222" data-name="Path 1222" d="M42.033.968S14.039-.752,7.955.394c-9.162,1.723-9.967,24.76-4.677,24.382C7.464,24.474,14.087,2.7,14.087,2.7Z" transform="translate(58.031 15.18)" fill="#fff"/>
                  <path id="Path_1223" data-name="Path 1223" d="M20.341,16.082a.753.753,0,0,1,.548,1.151c-1.417,2.224-4.709,7.448-4.806,8.031-.124.742-2.721,2.1-6.679-1.36S-3.794,13.779,1.7.286c2.637-1,17.39.445,18.116,7.206a58.982,58.982,0,0,1-2.895,8.151Z" transform="translate(55.257 64.243)" fill="#393848"/>
                  <path id="Path_1224" data-name="Path 1224" d="M5.414,1.715A19.777,19.777,0,0,1,6.887,6.15,20.086,20.086,0,0,1,7.34,10.6a14.52,14.52,0,0,1-.706,4.317A12.707,12.707,0,0,1,4.679,18.62,11.994,11.994,0,0,0,5.273,14.7a12.434,12.434,0,0,0-.665-3.724,16.65,16.65,0,0,0-1.588-3.34A14.835,14.835,0,0,0,.875,4.863,2.82,2.82,0,1,1,5.35,1.574Z" transform="translate(104.852 22.252)" fill="#f1821e"/>
                  <g id="Group_368" data-name="Group 368" transform="translate(104.852 22.252)">
                    <g id="Group_367" data-name="Group 367" transform="translate(0 0)" clip-path="url(#clip-path-4)">
                      <ellipse id="Ellipse_4008" data-name="Ellipse 4008" cx="6.095" cy="6.095" rx="6.095" ry="6.095" transform="translate(1.306 9.88)" fill="#393848"/>
                    </g>
                  </g>
                  <path id="Path_1226" data-name="Path 1226" d="M64.3,67.09c-15.408-7.564-30.6-6.265-42.447-2.607A62.88,62.88,0,0,0,5.4,72.279C-.494,76.345-1.29,82.57,1.69,85.465c1.515,1.472,5.932.617,8.1.385,4.073-.2,8,1.277,15.1,1.026,16.949-.6,38.9-1.316,48.61-2.075,14.719-1.15,11.73-3.449,9.43-6.9S69,50.669,79.247,43.4c10.5-7.447,10.873-10.2,21.619-14.03,13.474-3.494,8.681-12.151,8.846-20.014s-.531-10.717-2.4-8.764c-3.52,3.062.45,14.511-8.52,15.2a145.408,145.408,0,0,1-19.012-.077,4.709,4.709,0,0,1-.093-4.291c1.371-2.943,4.669-5.655,2.59-7.216-1.357-.156-4.949-1.983-10.967,13.311-4.44,11.285-5.864,17.365-10.427,24.884a28.62,28.62,0,0,0-3.714,17.78S56,63.111,55.638,64.322" fill="#f1821e"/>
                  <path id="Path_1227" data-name="Path 1227" d="M.665,16.082a.753.753,0,0,0-.548,1.151c1.417,2.224,4.709,7.448,4.806,8.031.123.742,2.721,2.1,6.681-1.36S24.794,13.779,19.312.286c-2.638-1-17.391.445-18.117,7.206a59,59,0,0,0,2.888,8.151Z" transform="translate(81.806 64.358)" fill="#393848"/>
                  <path id="Path_1228" data-name="Path 1228" d="M8.312,0S6.017,4.917,0,2.413" transform="translate(46.998 92.207)" fill="#393848"/>
                  <path id="Path_1229" data-name="Path 1229" d="M23.894,9.289S23.493-1.753,6.875.241c0,0-7.98,2.6-6.745,8.182C9.288,10.644,23.894,9.289,23.894,9.289Z" transform="translate(0.904 77.313)" fill="#393848"/>
                  <path id="Path_1230" data-name="Path 1230" d="M0,0" transform="translate(51.265 63.257)" fill="#28244e"/>
                  <path id="Path_1231" data-name="Path 1231" d="M0,4.647S.842-.754,4.448.089s8.265,10.373,8.265,10.373Z" transform="translate(52.352 58.779)" fill="#fff"/>
                  <path id="Path_1233" data-name="Path 1233" d="M14.672,3.2S14-8.607,0,13.127Z" transform="translate(83.3 27.284)" fill="#393848"/>
                  <path id="Path_1234" data-name="Path 1234" d="M0,0" transform="translate(57.167 22.472)" fill="#fff"/>
                  <path id="Path_1235" data-name="Path 1235" d="M9.429,0c1.44,3.344.644,6.9-1.772,7.939S2.109,7.115.671,3.771A8.764,8.764,0,0,1,0,1.266" transform="translate(43.236 84.619)" fill="none" stroke="#e0e0e0" stroke-miterlimit="10" stroke-width="0.5" opacity="0.5"/>
                  <ellipse id="Ellipse_4009" data-name="Ellipse 4009" cx="5.836" cy="8.066" rx="5.836" ry="8.066" transform="translate(66.648 85.957) rotate(145.801)" fill="#fff"/>
                  <ellipse id="Ellipse_4010" data-name="Ellipse 4010" cx="2.55" cy="3.058" rx="2.55" ry="3.058" transform="translate(57.887 83.096) rotate(150)" fill="#191919"/>
                  <ellipse id="Ellipse_4011" data-name="Ellipse 4011" cx="1.227" cy="1.227" rx="1.227" ry="1.227" transform="translate(54.995 79.651)" fill="#fff"/>
                  <path id="Path_1236" data-name="Path 1236" d="M11.828,0A5.282,5.282,0,0,1,9.743,4.62c-2.666,1.812-6.857.3-9.364-3.388Q.179.938,0,.636" transform="translate(52.087 84.618)" fill="none" stroke="#e0e0e0" stroke-miterlimit="10" stroke-width="0.5" opacity="0.5"/>
                  <path id="Path_1237" data-name="Path 1237" d="M5.133,0C-1.309,5.331-1.408,23.358,3.277,23.023c.392-.027,1.138-.058,1.234-.615C2.1,23.939-2.181,10.628,5.133,0Z" transform="translate(58.032 16.933)" fill="#e0e0e0" opacity="0.5"/>
                </g>
                <path id="Path_1238" data-name="Path 1238" d="M0,16.544a13.2,13.2,0,0,1,4.09-7.99,24.389,24.389,0,0,1,7.566-5.1c1.368-.678,2.835-1.078,4.251-1.614,1.468-.358,2.917-.793,4.4-1.057C21.791.552,23.271.3,24.764.168,26.267.113,27.754,0,29.248,0c-1.448.411-2.9.7-4.338,1.057s-2.849.785-4.275,1.122L16.45,3.488c-1.337.566-2.747.961-4.034,1.634A29.679,29.679,0,0,0,5.068,9.6a19.386,19.386,0,0,0-2.975,3.109A12.015,12.015,0,0,0,0,16.544Z" transform="translate(5.821 62.336)" fill="#d87830"/>
              </g>
            </g>
            <path id="Path_1239" data-name="Path 1239" d="M.408,4.888s10.8,3.625,14.362,10.368c0,0,1.839-1.116,2.066-2.207,0,0-3.422-8.64-16.836-13.05Z" transform="translate(62.96 31.966)" fill="#7f6fec"/>
            <g id="Group_373" data-name="Group 373" transform="translate(57.166 29.273)">
              <path id="Path_1240" data-name="Path 1240" d="M3.748,0A2.729,2.729,0,0,0,2.656.172,3.96,3.96,0,0,0,.487,2.427,6.267,6.267,0,0,0,.122,6.078c.5,2.552,2.458,4.055,4.356,3.361A3.96,3.96,0,0,0,6.647,7.182a6.267,6.267,0,0,0,.365-3.648h0A4.786,4.786,0,0,0,5.365.631,2.878,2.878,0,0,0,3.748,0Z" transform="translate(0.001 0.015)" fill="#28244e"/>
              <path id="Path_1241" data-name="Path 1241" d="M6.487,3.521C6.027.964,4.228-.534,2.465.176S-.351,3.533.107,6.09s2.258,4.054,4.02,3.344S6.944,6.079,6.487,3.521Z" transform="translate(0.001 0)" fill="#f4c74c"/>
              <path id="Path_1242" data-name="Path 1242" d="M1.99,8.724A2.308,2.308,0,0,1,0,8.618c2.093-.352,3.851-2.726,3.451-6.435A8.012,8.012,0,0,0,2.928,0,4.937,4.937,0,0,1,4.351,2.812C4.807,5.369,3.75,8.015,1.99,8.724Z" transform="translate(2.14 0.71)" fill="#e0e0e0" opacity="0.2"/>
              <path id="Path_1243" data-name="Path 1243" d="M4.972.624a4.831,4.831,0,0,1,1.516,2.9h0a6.751,6.751,0,0,1-.347,3.648A3.875,3.875,0,0,1,4.129,9.433C2.371,10.141.567,8.64.11,6.09A6.739,6.739,0,0,1,.456,2.441,3.876,3.876,0,0,1,2.468.177,2.34,2.34,0,0,1,3.479,0,2.533,2.533,0,0,1,4.972.624ZM4.041,8.945a3.463,3.463,0,0,0,1.8-2.026,6.036,6.036,0,0,0,.311-3.27h0a4.33,4.33,0,0,0-1.36-2.59A2.128,2.128,0,0,0,2.557.66a3.463,3.463,0,0,0-1.8,2.03A6.036,6.036,0,0,0,.446,5.954C.777,7.8,1.9,9.03,3.141,9.1a2.079,2.079,0,0,0,.9-.153Z" transform="translate(0 0.001)" fill="#2d2d70"/>
              <g id="Group_372" data-name="Group 372" transform="translate(1.338 1.977)">
                <path id="Path_1244" data-name="Path 1244" d="M3.873,3.462a2.506,2.506,0,0,0-.2-1.1A5.566,5.566,0,0,0,3.062,1.3c-.2-.289-.412-.568-.617-.852-.1-.131-.192-.262-.289-.392-.058-.076-.115-.076-.177,0C1.753.3,1.525.551,1.3.808s-.474.538-.692.842a3.4,3.4,0,0,0-.459.84A2.514,2.514,0,0,0,.005,3.5a2.171,2.171,0,0,0,.165.719,1.022,1.022,0,0,0,.663.654.827.827,0,0,0,.9-.451A2.046,2.046,0,0,0,1.9,4.117c.017-.038.025-.035.038,0a1.818,1.818,0,0,0,.318.6.7.7,0,0,0,.7.281c.408-.08.676-.42.835-.964a1.982,1.982,0,0,0,.058-.262,1.939,1.939,0,0,0,.027-.307Z" fill="#ededee"/>
              </g>
            </g>
          </g>
        </g>
      </g>
      <g id="Group_53183" data-name="Group 53183" transform="translate(-71 -98)">
        <path id="Path_58721" data-name="Path 58721" d="M2501.353,10837.245s-24.766-23.891,2.984-52.79c2.3,3.243,3.69,7.826,2.86,11.234,3.124-2.592,5.248-7.335,4.585-15.249s6.216-14.729,9.857-14.767c-1.453,6.849-1.464,18.63,11.9,38.013s-9.888,33.559-9.888,33.559Z" transform="translate(-1536 -71.336)" fill="#faa2dc"/>
        <path id="Path_58722" data-name="Path 58722" d="M2495.763,10799.367s-11.156-10.762,1.344-23.778a6.818,6.818,0,0,1,1.288,5.06c1.407-1.168,2.364-3.3,2.065-6.869s1.47-5.441,3.11-5.459c-.332,3.969.528,4.379,6.549,13.11s-4.312,17.937-4.312,17.937Z" transform="translate(-1523.222 -39.433)" fill="#ffd6f1"/>
        <g id="Group_53182" data-name="Group 53182" transform="translate(10 7)">
          <g id="Mask_Group_216" data-name="Mask Group 216" transform="translate(924 10749)" clip-path="url(#clip-path-5)">
            <g id="Group_53177" data-name="Group 53177" transform="translate(1.936 1.665)">
              <path id="Path_58548-4" data-name="Path 58548" d="M-6.223-.295,58.184-.532V17.145l-66.59-.05Z" transform="translate(13.287 2.036)" fill="#f8aedf"/>
              <ellipse id="Ellipse_5385-3" data-name="Ellipse 5385" cx="6" cy="9" rx="6" ry="9" transform="translate(65.064 1.335)" fill="#f8aedf"/>
              <path id="Path_58549-4" data-name="Path 58549" d="M4.591.558c2.536.308,4.944,4.427,5.378,9.2s-1.269,8.393-3.8,8.085S1.221,13.416.787,8.643,2.056.25,4.591.558Z" transform="matrix(0.951, 0.309, -0.309, 0.951, 3.845, 0)" fill="#ffd6f1"/>
              <path id="Path_58551-4" data-name="Path 58551" d="M2.744.333C4.259.517,5.7,2.979,5.958,5.832S5.2,10.848,3.684,10.664.73,8.018.47,5.165,1.229.149,2.744.333Z" transform="matrix(0.951, 0.309, -0.309, 0.951, 4.759, 4.189)" fill="#fceaf6"/>
            </g>
          </g>
          <g id="Mask_Group_215" data-name="Mask Group 215" transform="translate(915 10763)" clip-path="url(#clip-path-6)">
            <g id="Group_53178" data-name="Group 53178" transform="translate(1.358 1.737)">
              <path id="Path_58548-5" data-name="Path 58548" d="M-6.214-.32l64.644.2V15.307l-66.835-.045Z" transform="translate(13.086 2.152)" fill="#f5b8e1"/>
              <ellipse id="Ellipse_5385-4" data-name="Ellipse 5385" cx="6" cy="7.5" rx="6" ry="7.5" transform="translate(65.642 2.264)" fill="#eb92cd"/>
              <path id="Path_58549-5" data-name="Path 58549" d="M4.763.574c2.509.2,4.771,3.856,5.052,8.169S8.289,16.39,5.78,16.191,1.009,12.335.728,8.022,2.254.375,4.763.574Z" transform="matrix(0.951, 0.309, -0.309, 0.951, 3.498, 0)" fill="#ffd6f1"/>
              <path id="Path_58551-5" data-name="Path 58551" d="M2.847.343c1.5.119,2.851,2.3,3.019,4.882S4.954,9.8,3.454,9.677.6,7.372.435,4.795,1.347.224,2.847.343Z" transform="matrix(0.951, 0.309, -0.309, 0.951, 4.473, 3.863)" fill="#fceaf6"/>
            </g>
          </g>
          <g id="Mask_Group_214" data-name="Mask Group 214" transform="translate(931 10762)" clip-path="url(#clip-path-7)">
            <g id="Group_53179" data-name="Group 53179" transform="translate(0.533 2.506)">
              <path id="Path_58548-6" data-name="Path 58548" d="M-6.223-.32,58.184-.1V17.119l-66.59-.05Z" transform="translate(13.287 2.061)" fill="#fcc2e8"/>
              <path id="Path_58553-2" data-name="Path 58553" d="M6.284-.182c3.461,0,6.249,3.966,6.249,8.606s-2.788,8.613-6.249,8.613S0,13.065,0,8.425,2.823-.182,6.284-.182Z" transform="translate(65.048 2.148)" fill="#fcc2e8"/>
              <path id="Path_58549-6" data-name="Path 58549" d="M4.591.558c2.536.308,4.944,4.427,5.378,9.2s-1.269,8.393-3.8,8.085S1.221,13.416.787,8.643,2.056.25,4.591.558Z" transform="matrix(0.951, 0.309, -0.309, 0.951, 3.845, 0)" fill="#ffd6f1"/>
              <path id="Path_58551-6" data-name="Path 58551" d="M2.744.333C4.259.517,5.7,2.979,5.958,5.832S5.2,10.848,3.684,10.664.73,8.018.47,5.165,1.229.149,2.744.333Z" transform="matrix(0.951, 0.309, -0.309, 0.951, 4.759, 4.189)" fill="#fceaf6"/>
            </g>
          </g>
        </g>
      </g>
      <g id="Group_53184" data-name="Group 53184" transform="matrix(-0.998, -0.07, 0.07, -0.998, 1127.803, 10691.508)">
        <g id="Group_52492" data-name="Group 52492" transform="translate(144.64 -53.219)">
          <g id="Group_51541" data-name="Group 51541" transform="translate(42.706 288.987) rotate(-172)">
            <path id="Path_53799" data-name="Path 53799" d="M.988,1.281C.529-1.465-.609.154,0,8.8.518,7.441,1.045,6.09,1.547,4.725,1.307,3.21,1.116,2.03.988,1.281Z" transform="translate(-7.006 7.075) rotate(-21)"/>
            <ellipse id="Ellipse_5246" data-name="Ellipse 5246" cx="0.694" cy="0.921" rx="0.694" ry="0.921" transform="translate(-8.944 4.568) rotate(-21)" fill="#f1821e"/>
            <path id="Path_53800" data-name="Path 53800" d="M8.316,5.122c2.062,16.97,4.744,38.431,6.21,45.823a10.152,10.152,0,0,0,8.333,7.694l-.869-4.151s-3.851.116-4.965-7.31C14.719,31.785,11.825,12.325,10,.649c-.42,2.557-.862,5.09-1.3,7.617,2.081,16.9,4.8,35.67,5.825,42.68" transform="translate(-12.251 15.972) rotate(-21)"/>
          </g>
          <path id="Path_53842" data-name="Path 53842" d="M0,35.344s5.187-3.227,5.851-5.437A167.861,167.861,0,0,0,2.387,4.853C1.076,2.374-4.744.97-4.744.97Z" transform="translate(15.344 210.987) rotate(-13)" fill="#4a42b3"/>
        </g>
        <ellipse id="Ellipse_4106" data-name="Ellipse 4106" cx="0.479" cy="0.479" rx="0.479" ry="0.479" transform="matrix(0.978, -0.208, 0.208, 0.978, 125.082, 158.307)" fill="#f1821e"/>
        <path id="Path_53803" data-name="Path 53803" d="M69.028,54.994l-2.2-5.173c-16.309,2.91-27.7,1.874-41.271-7.59A61.577,61.577,0,0,1,0,2.267L12.7,0A48.761,48.761,0,0,0,32.939,31.647c10.746,7.492,12.57,5.769,16.121,7.453l4.1,4.074Z" transform="translate(158.559 63.137) rotate(109)" fill="#ddd"/>
        <path id="Path_58723" data-name="Path 58723" d="M69.028,54.994l-2.2-5.173c-16.309,2.91-27.7,1.874-41.271-7.59A61.577,61.577,0,0,1,0,2.267L12.7,0A48.761,48.761,0,0,0,32.939,31.647c10.746,7.492,12.57,5.769,16.121,7.453l4.1,4.074Z" transform="translate(-17.184 70.501) rotate(-11)" fill="#ddd"/>
        <rect id="Rectangle_9077" data-name="Rectangle 9077" width="3.87" height="12.902" transform="translate(93.904 98.657) rotate(167)" fill="#9c9c9b"/>
        <path id="Path_53804" data-name="Path 53804" d="M8.118,0s-5.955,2.792-7.1,4.816C.615,6.828-.71,18.858.495,27.481c1.219,2.5,8.117,4.678,8.117,4.678Z" transform="matrix(-0.978, 0.208, -0.208, -0.978, 109.837, 103.218)" fill="#6d66d3"/>
        <path id="Path_53805" data-name="Path 53805" d="M0,0S6.853,3.128,8.064,5.116c.46,2,2.249,13.449,1.31,22.1-1.141,2.539-8.029,4.925-8.029,4.925Z" transform="matrix(-0.978, 0.208, -0.208, -0.978, 44.735, 117.976)" fill="#6d66d3"/>
        <ellipse id="Ellipse_5248" data-name="Ellipse 5248" cx="4.802" cy="4.802" rx="4.802" ry="4.802" transform="translate(84.203 12.77) rotate(173)" fill="#7f6fec"/>
        <path id="Path_53808" data-name="Path 53808" d="M8.395.008a8.047,8.047,0,1,0,7.694,8.386A8.056,8.056,0,0,0,8.395.008ZM7.923,10.961a2.919,2.919,0,1,1,3.038-2.787A2.917,2.917,0,0,1,7.923,10.961Z" transform="translate(87.473 15.975) rotate(173)" fill="#393848"/>
        <ellipse id="Ellipse_5249" data-name="Ellipse 5249" cx="4.802" cy="4.802" rx="4.802" ry="4.802" transform="translate(35.257 20.27) rotate(173)" fill="#7f6fec"/>
        <path id="Path_53809" data-name="Path 53809" d="M16.087,8.395A8.047,8.047,0,1,0,7.7,16.088,8.059,8.059,0,0,0,16.087,8.395ZM5.133,7.923a2.919,2.919,0,1,1,2.786,3.038A2.915,2.915,0,0,1,5.133,7.923Z" transform="translate(38.874 23.097) rotate(173)" fill="#393848"/>
        <path id="Path_53811" data-name="Path 53811" d="M2.05,18.037C.8,43.779-.149,69.35.019,80.353s4.564,19.5,27.667,20.058,42.673.574,42.339-21.135-1.238-45.41-2.011-59.209C67.334,7.919,59.934-.359,35.784.012S1.876,6.712,2.05,18.037Z" transform="matrix(-0.978, 0.208, -0.208, -0.978, 108.917, 113.457)" fill="#7f6fec"/>
        <path id="Path_53814" data-name="Path 53814" d="M10.544,0c-5.967,3.052-8.589,7.6-8.5,13.521C.418,39.181.415,64.84.015,75.837-.213,82.093,2.149,88.832,8,91.644c.731-24.623.527-56.319,1.335-80.988A34.261,34.261,0,0,1,10.544,0Z" transform="matrix(-0.978, 0.208, -0.208, -0.978, 107.973, 109.041)" fill="#675ead" opacity="0.1" style="mix-blend-mode: multiply;isolation: isolate"/>
        <path id="Path_53815" data-name="Path 53815" d="M1.415,6.283a.627.627,0,0,1-.65.6h0A.628.628,0,0,1,.1,6.307L0,.6A.627.627,0,0,1,.649,0h0A.631.631,0,0,1,1.32.58Z" transform="matrix(-0.978, 0.208, -0.208, -0.978, 88.689, 36.676)" fill="#25193d"/>
        <path id="Path_53816" data-name="Path 53816" d="M1.415,6.282a.627.627,0,0,1-.65.6h0A.626.626,0,0,1,.1,6.306L0,.6A.627.627,0,0,1,.649,0h0A.63.63,0,0,1,1.32.58Z" transform="matrix(-0.978, 0.208, -0.208, -0.978, 86.653, 36.363)" fill="#25193d"/>
        <path id="Path_53817" data-name="Path 53817" d="M1.415,6.283a.629.629,0,0,1-.649.6h0A.63.63,0,0,1,.1,6.307L0,.6A.627.627,0,0,1,.649,0h0A.63.63,0,0,1,1.32.58Z" transform="matrix(-0.978, 0.208, -0.208, -0.978, 84.594, 35.947)" fill="#25193d"/>
        <path id="Path_53821" data-name="Path 53821" d="M10.932,0S-3.148,2.5.65,16.237c2.2,7.962,11.394,9.572,20.517,4.714L23.482,9.728Z" transform="matrix(-0.978, 0.208, -0.208, -0.978, 86.986, 99.35)" fill="#675ead" opacity="0.2" style="mix-blend-mode: multiply;isolation: isolate"/>
        <path id="Path_53823" data-name="Path 53823" d="M9.813,74.258C9.48,52.55,8.575,28.849,7.8,15.05,7.45,8.783,5.3,3.551,0,0,6.086,29.173,5.475,74.108,2.645,86.353a21.118,21.118,0,0,1-1.151,5.009C6.811,88.291,9.949,83.06,9.813,74.258Z" transform="matrix(-0.978, 0.208, -0.208, -0.978, 48.976, 121.068)" fill="#fff" opacity="0.1"/>
        <path id="Path_53824" data-name="Path 53824" d="M58.026,43.3a3.7,3.7,0,0,1,.538-.513l-.005-.031a5.018,5.018,0,0,1-3.907-.909c-3.367-2.514-4.316-9.489-4.629-11.781-.383-2.816-.536-5.771-.685-8.63A69.246,69.246,0,0,0,47.831,8.378c-.968-3.879-4.56-5.946-7.4-7C36.42-.1,32.15-.035,28.383.023c-4.26.065-9.2.435-13.559,2.676-1.939,1-4.095,2.278-5.148,4.855a21.023,21.023,0,0,0-1.125,6.761l-.038.663c-.116,1.941-.188,3.918-.256,5.83-.074,2.059-.151,4.188-.285,6.275l-.023.369c-.335,5.312-.959,15.2-6.683,16.184A5.691,5.691,0,0,1,0,43.7a3.694,3.694,0,0,1,.584.485,5.549,5.549,0,0,0,.765-.074c6.1-1.049,6.739-11.184,7.084-16.63l.023-.369c.134-2.094.21-4.227.285-6.288.069-1.909.14-3.883.256-5.82l.039-.663a20.655,20.655,0,0,1,1.088-6.606c.991-2.424,3.061-3.649,4.921-4.606C19.314.933,24.187.572,28.39.506,32.115.449,36.337.385,40.26,1.834c2.734,1.011,6.185,2.988,7.1,6.661a68.691,68.691,0,0,1,1.494,12.964c.149,2.869.3,5.834.69,8.671.553,4.064,1.655,9.741,4.819,12.1A5.374,5.374,0,0,0,58.026,43.3Z" transform="matrix(-0.978, 0.208, -0.208, -0.978, 92.408, 64.492)" fill="#4a42b3"/>
        <ellipse id="Ellipse_5252" data-name="Ellipse 5252" cx="11.641" cy="11.641" rx="11.641" ry="11.641" transform="matrix(-0.978, 0.208, -0.208, -0.978, 83.187, 101.117)" fill="#393848"/>
        <ellipse id="Ellipse_5253" data-name="Ellipse 5253" cx="10.182" cy="10.182" rx="10.182" ry="10.182" transform="matrix(-0.978, 0.208, -0.208, -0.978, 81.459, 100.003)" fill="#f1821e"/>
        <path id="Path_53825" data-name="Path 53825" d="M11.527,3.262a3.875,3.875,0,0,1-.673,2.254A11.6,11.6,0,0,1,8.942,7.663c-.624.584-1.27,1.142-1.9,1.716q-.442.4-.892.8a.363.363,0,0,1-.526,0c-.653-.537-1.311-1.069-1.96-1.612C2.978,7.99,2.295,7.417,1.67,6.778A6.691,6.691,0,0,1,.364,5.013a3.7,3.7,0,0,1-.332-2.1A3.368,3.368,0,0,1,.563,1.436,2.859,2.859,0,0,1,2.587.122a2.862,2.862,0,0,1,2.643.992A3.791,3.791,0,0,1,5.7,1.76c.048.081.073.074.116,0A3.727,3.727,0,0,1,6.813.569a2.652,2.652,0,0,1,2.1-.532,2.954,2.954,0,0,1,2.408,2.046,3.05,3.05,0,0,1,.148.547A2.758,2.758,0,0,1,11.527,3.262Z" transform="matrix(-0.978, 0.208, -0.208, -0.978, 76.013, 95.526)" fill="#ededee"/>
        <path id="Path_53826" data-name="Path 53826" d="M13.988,17.853a14.206,14.206,0,0,1-3.389.813A10.293,10.293,0,0,1,0,8.253,10.544,10.544,0,0,1,4.039,0C2.245.589-3.28,17.826,13.988,17.853Z" transform="matrix(-0.978, 0.208, -0.208, -0.978, 81.039, 98.038)" fill="gray" opacity="0.1" style="mix-blend-mode: multiply;isolation: isolate"/>
        <path id="Path_53827" data-name="Path 53827" d="M24.83,4.755c1.351-5.2-1.867-5.266-4.072-4.228-1.948.916-5.79,2.3-6.611,2.806a.646.646,0,0,0-.688-.485,1.338,1.338,0,0,0-.877.439,1.335,1.335,0,0,0-.922-.334c-.32-.006-.532.211-.628.561C10.159,3.107,6.343,1.964,4.3,1.278,1.994.5-1.18.681.445,6.014-.59,11.8,2.531,11.127,5.073,9.9c1.585-.768,3.921-1.819,5.455-2.5V7.41c.127-.062.242-.118.349-.173l.522-.231c.125.305.327.48.6.441a1.14,1.14,0,0,0,.758-.408h0c.014,0,.029,0,.043,0h0a1.144,1.144,0,0,0,.8.316c.253.008.425-.169.519-.45,1.362.582,4.555,1.933,6.61,2.649C23.4,10.483,26.154,10.207,24.83,4.755Z" transform="matrix(-0.978, 0.208, -0.208, -0.978, 90.185, 120.044)" fill="#675ead" opacity="0.1" style="mix-blend-mode: multiply;isolation: isolate"/>
        <path id="Path_53828" data-name="Path 53828" d="M24.83,4.754c1.351-5.2-1.867-5.265-4.072-4.228-1.948.917-5.79,2.3-6.611,2.806a.645.645,0,0,0-.688-.484,1.337,1.337,0,0,0-.877.437,1.341,1.341,0,0,0-.922-.334c-.32-.006-.532.211-.628.561-.874-.4-4.69-1.549-6.729-2.235C1.994.5-1.18.682.445,6.013-.59,11.795,2.531,11.126,5.073,9.9c1.585-.768,3.921-1.82,5.455-2.5v.016c.127-.061.242-.117.349-.171l.522-.232c.125.306.327.482.6.443a1.141,1.141,0,0,0,.758-.41h.05a1.138,1.138,0,0,0,.8.317c.253.008.425-.168.519-.45,1.361.582,4.555,1.933,6.61,2.649C23.4,10.484,26.154,10.206,24.83,4.754Z" transform="matrix(-0.978, 0.208, -0.208, -0.978, 88.047, 121.65)" fill="#393848"/>
        <path id="Path_53829" data-name="Path 53829" d="M1.361,5.875a3.229,3.229,0,0,0,.827-.17A29.352,29.352,0,0,0,5.658,4.328C6.8,3.821,7.926,3.29,9.048,2.746l.628-.308a.537.537,0,0,0,.3-.536L9.787,0V1.833a.433.433,0,0,1-.257.4Q8,2.91,6.456,3.571c-1.269.543-2.54,1.088-3.832,1.572a2.608,2.608,0,0,1-1.2.276,1.207,1.207,0,0,1-.835-.577,1.267,1.267,0,0,1-.193-.669,2.092,2.092,0,0,1,.47-1.394A1.532,1.532,0,0,0,.007,4.048,1.828,1.828,0,0,0,.769,5.731,1.094,1.094,0,0,0,1.361,5.875Z" transform="matrix(-0.978, 0.208, -0.208, -0.978, 85.859, 117.815)" fill="#333"/>
        <path id="Path_53830" data-name="Path 53830" d="M0,0A2.591,2.591,0,0,1,.153,2.65,4.676,4.676,0,0,0,0,0Z" transform="matrix(-0.978, 0.208, -0.208, -0.978, 74.927, 120.578)" fill="#333"/>
        <path id="Path_53831" data-name="Path 53831" d="M4.142.421C2.261.089,1.33-.157.642.119-.17.446-.642,1.236,1.956,4.887c.451.658.348.974.348.974s.493-.274-.6-1.9S.2,1.1.722.659,4.142.421,4.142.421Z" transform="matrix(-0.978, 0.208, -0.208, -0.978, 86.483, 120.161)" fill="#333"/>
        <path id="Path_53832" data-name="Path 53832" d="M0,5.441c1.882.33,2.811.577,3.5.3C4.313,5.414,4.786,4.624,2.187.973,1.736.315,1.838,0,1.838,0s-.492.272.6,1.9,1.5,2.859.98,3.3S0,5.441,0,5.441Z" transform="matrix(-0.978, 0.208, -0.208, -0.978, 67.484, 122.646)" fill="#333"/>
        <path id="Path_53833" data-name="Path 53833" d="M8.905,2.438c.2-1.01.1-1.689-.319-1.893C7.974.247,0,3.128,0,3.128,1.738,2.332,7.789-.091,8.526,0c.717.092,1.43.727.178,3.25Z" transform="matrix(-0.978, 0.208, -0.208, -0.978, 73.558, 124.112)" fill="#333"/>
        <line id="Line_45" data-name="Line 45" x1="0.164" y1="10.646" transform="matrix(-0.978, 0.208, -0.208, -0.978, 66.719, 80.818)" fill="none" stroke="#4a42b3" stroke-miterlimit="10" stroke-width="0.25" opacity="0.5"/>
        <path id="Path_53834" data-name="Path 53834" d="M0,0C.916,11.551,2.432,26.078,3.357,31.19S8.45,36.31,8.715,40.081" transform="matrix(-0.978, 0.208, -0.208, -0.978, 48.867, 120.91)" fill="none" stroke="#4a42b3" stroke-miterlimit="10" stroke-width="0.25" opacity="0.5"/>
        <path id="Path_53835" data-name="Path 53835" d="M7.478,0c-.561,11.575-1.629,26.141-2.4,31.279S.148,36.554,0,40.331" transform="matrix(-0.978, 0.208, -0.208, -0.978, 106.527, 107.843)" fill="none" stroke="#4a42b3" stroke-miterlimit="10" stroke-width="0.25" opacity="0.5"/>
        <ellipse id="Ellipse_5254" data-name="Ellipse 5254" cx="0.977" cy="0.977" rx="0.977" ry="0.977" transform="matrix(-0.978, 0.208, -0.208, -0.978, 67.295, 100.767)" fill="#ededee"/>
        <path id="Path_53839" data-name="Path 53839" d="M1.745,10.376H1.4A1.463,1.463,0,0,0,.768,9.23,1.855,1.855,0,0,1,.013,7.786,1.851,1.851,0,0,1,.761,6.337a1.465,1.465,0,0,0,.625-1.151A1.463,1.463,0,0,0,.755,4.039,1.849,1.849,0,0,1,0,2.6,1.848,1.848,0,0,1,.749,1.15,1.462,1.462,0,0,0,1.374,0H1.72A1.845,1.845,0,0,1,.972,1.446,1.464,1.464,0,0,0,.345,2.6,1.467,1.467,0,0,0,.977,3.743a1.85,1.85,0,0,1,.755,1.444A1.848,1.848,0,0,1,.983,6.634,1.465,1.465,0,0,0,.358,7.785,1.464,1.464,0,0,0,.99,8.933,1.849,1.849,0,0,1,1.745,10.376Z" transform="translate(26.234 230.192) rotate(159)" fill="#fff"/>
        <path id="Path_53840" data-name="Path 53840" d="M4.687,1.756H4.342C4.34,1,3.45.385,2.357.387L0,.392V.005L2.356,0A2.106,2.106,0,0,1,4.687,1.756Z" transform="translate(29.667 230.73) rotate(159)" fill="#fff"/>
        <path id="Path_53841" data-name="Path 53841" d="M2.357,1.766,0,1.773V1.385l2.357-.006C3.449,1.377,4.337.758,4.335,0H4.68A2.105,2.105,0,0,1,2.357,1.766Z" transform="translate(25.305 219.455) rotate(159)" fill="#fff"/>
        <path id="Path_53802" data-name="Path 53802" d="M6.81,0C18.514,3.481,24.168,6.612,24.2,21.338s-.395,75.615-.55,85.184S14.85,126.476,0,127.366" transform="translate(69.885 265.635) rotate(159)" fill="#7f6fec"/>
        <g id="Group_52493" data-name="Group 52493" transform="matrix(0.719, -0.695, 0.695, 0.719, -3554.798, 3714.722)">
          <path id="Path_53838" data-name="Path 53838" d="M.626.547A.6.6,0,0,1,1.227,0C5.644.3,9.15,4.4,9.163,9.436S5.675,18.6,1.249,18.91a.585.585,0,0,1-.6-.512A62.707,62.707,0,0,1,.626.547Z" transform="matrix(-0.875, -0.485, 0.485, -0.875, 4995.308, -8.857)" fill="#f4c74c"/>
          <path id="Path_53801" data-name="Path 53801" d="M8.35,40.971S1.531,38.026.39,35.617c-.391-2.4-.8-17.1.443-27.381C2.062,5.252,9.013,0,9.013,0Z" transform="translate(5005.377 -39.374) rotate(21)" fill="#4a42b3"/>
        </g>
        <path id="Path_53806" data-name="Path 53806" d="M12.7,128.9c28.005,4.067,83.935,4,112.292,1.815a12.313,12.313,0,0,0,11.57-11.307c2.876-26.844,2.355-77.307,1.682-103.92-.161-6.346-4.985-10.708-11.2-11.676-27-4.206-82.519-5.1-113.683-1.839C7.108,2.63,2.288,6.954,1.792,13.283-.273,39.572-.787,90.158,1.5,117.226A12.576,12.576,0,0,0,12.7,128.9Z" transform="translate(181.889 226.696) rotate(159)" fill="#7f6fec"/>
        <path id="Path_53807" data-name="Path 53807" d="M.005,35.887C-.263,52.5,10.177,66.684,24.69,71.309A33.672,33.672,0,0,0,34.4,72.9c19.323.313,35.249-15.753,35.574-35.879A36.988,36.988,0,0,0,57.6,8.6l0,0A34,34,0,0,0,35.579,0C16.259-.308.33,15.756.005,35.887Z" transform="translate(152.728 221.224) rotate(159)" fill="#fff"/>
        <ellipse id="Ellipse_5247" data-name="Ellipse 5247" cx="19.44" cy="18.661" rx="19.44" ry="18.661" transform="translate(124.762 165.396) rotate(70)" fill="#f1821e"/>
        <path id="Path_53810" data-name="Path 53810" d="M2.131.05S14.836,2.6,21.956,2.716C30,2.847,41.681.689,41.681.689,43.123.331,44.293,2.326,43.472,3.6c-2.824,4.39-9.6,12.271-21.814,12.073S2.927,7.382.246,2.9C-.532,1.6.654-.335,2.131.05Z" transform="translate(110.319 144.411) rotate(159)" fill="#fff"/>
        <path id="Path_53812" data-name="Path 53812" d="M36.019,10.44S22.45,1.9,0,10.148C0,10.148,18.384-12.878,36.019,10.44Z" transform="translate(142.366 240.905) rotate(159)" fill="#393848"/>
        <path id="Path_53813" data-name="Path 53813" d="M12.562,105.225C12.247,114.4,4.77,121.391,0,124.485.8,83.4,2.332,41.1,2.013,0c2.733,2.1,11.056,4.885,11.07,18.461C13.112,45.625,13.568,75.9,12.562,105.225Z" transform="translate(59.068 268.398) rotate(159)" fill="#675ead" opacity="0.1" style="mix-blend-mode: multiply;isolation: isolate"/>
        <path id="Path_53818" data-name="Path 53818" d="M11.37,0a11.149,11.149,0,0,1,11.37,10.914,10.761,10.761,0,0,1-1.978,6.153,11.372,11.372,0,0,1-9.393,4.761A11.149,11.149,0,0,1,0,10.914,11.149,11.149,0,0,1,11.37,0Z" transform="translate(122.335 171.846) rotate(70)" fill="#28244e"/>
        <ellipse id="Ellipse_5250" data-name="Ellipse 5250" cx="4.778" cy="4.586" rx="4.778" ry="4.586" transform="translate(123.941 172.675) rotate(70)" fill="#fff"/>
        <ellipse id="Ellipse_5251" data-name="Ellipse 5251" cx="1.23" cy="1.18" rx="1.23" ry="1.18" transform="translate(107.853 208.236) rotate(70)" fill="#fff"/>
        <path id="Path_53819" data-name="Path 53819" d="M0,62.713A33.672,33.672,0,0,0,9.709,64.3c19.323.313,35.249-15.753,35.574-35.879A36.988,36.988,0,0,0,32.905,0C35.067,4.726,53.2,51.084,0,62.713Z" transform="translate(97.509 227.048) rotate(-141)" fill="gray" opacity="0.1" style="mix-blend-mode: multiply;isolation: isolate"/>
        <path id="Path_53820" data-name="Path 53820" d="M0,0" transform="translate(164.06 163.079) rotate(159)" fill="none" stroke="#fff" stroke-miterlimit="10" stroke-width="1"/>
        <path id="Path_53822" data-name="Path 53822" d="M.936,0a2.259,2.259,0,0,0,.286.219C.868,5.886.089,61.583.34,64.686.917,66.609,4.779,76,5.825,77.565c-.015.212-.021.426-.02.639a126.659,126.659,0,0,1-5.75-13.34L.044,64.8c-.121-1.262.028-17.877.229-32.87C.339,27.011.668,3.487.936,0Z" transform="translate(55.094 268.19) rotate(159)" fill="#4a42b3"/>
        <path id="Path_53836" data-name="Path 53836" d="M0,0" transform="translate(44.025 287.133) rotate(159)"/>
        <path id="Path_53837" data-name="Path 53837" d="M.033,4.325,3.5,0l-.01.593L0,4.963" transform="translate(23.447 201.886) rotate(159)" fill="#4a42b3" opacity="0.5"/>
        <g id="Group_50847" data-name="Group 50847" transform="translate(182.075 63.498) rotate(128)">
          <path id="Path_53846" data-name="Path 53846" d="M22.565.614l7.351,13.262L6.923,19.762,2.054,5.082l7.473-1.6,2.08,9.382,6.22-3.448L14.771,3.9Z" transform="translate(0 6.73) rotate(-13)" fill="#7069d1"/>
        </g>
        <g id="Group_53185" data-name="Group 53185" transform="translate(-28.629 49.955) rotate(8)">
          <path id="Path_53846-2" data-name="Path 53846" d="M25.51,0l4.406,13.876L6.923,19.762,0,5.788,8.206,3.552l3.4,9.31,9.881-3.187L18.773,3.769Z" transform="translate(0 6.73) rotate(-13)" fill="#7069d1"/>
        </g>
        <g id="Group_53186" data-name="Group 53186" transform="matrix(-0.995, -0.105, 0.105, -0.995, 1588.201, 11054.203)">
          <path id="Path_58724" data-name="Path 58724" d="M2576.481,10782.207s-29.4-31.595-84.76-29.831c-3.012.184-1.828,2.817,0,2.753s31.179.3,41.177,5.646c.986,1.029-1.387,2.482-3.484,2.793s-1.656,2.364,0,2.434,8.278-2.562,11.233-1.581,18.543,3.445,38.2,33.266c3.361,5.676,10.286-.315,7.22-4.5S2576.481,10782.207,2576.481,10782.207Z" transform="translate(0 1.322)" fill="#68362b"/>
          <rect id="Rectangle_9808" data-name="Rectangle 9808" width="10" height="12" rx="4" transform="translate(2496.853 10749.478)" fill="#fff"/>
          <rect id="Rectangle_9809" data-name="Rectangle 9809" width="10" height="12" rx="4" transform="translate(2508.868 10749.651)" fill="#fff"/>
          <rect id="Rectangle_9810" data-name="Rectangle 9810" width="10" height="13" rx="4" transform="translate(2520.853 10750.478)" fill="#fff"/>
        </g>
        <path id="Path_58725" data-name="Path 58725" d="M22.565.614l7.351,13.262L12.34,18.5l2.853-7.628h0l2.635-1.461L14.771,3.9Z" transform="matrix(-0.423, 0.906, -0.906, -0.423, 176.772, 59.355)" fill="#7069d1"/>
      </g>
      <ellipse id="Ellipse_5551" data-name="Ellipse 5551" cx="73.61" cy="7.138" rx="73.61" ry="7.138" transform="translate(1003.234 10674.32)" fill="#f7f7f7" style="mix-blend-mode: multiply;isolation: isolate"/>
    </g>
  </g>
</svg>
